/* XPM */
static char *result[] = {
/* columns rows colors chars-per-pixel */
"32 32 29 1 ",
"  c #2E1E22",
". c gray19",
"X c #3A3A3A",
"o c #534721",
"O c gray26",
"+ c #505050",
"@ c #6E5967",
"# c gray38",
"$ c gray49",
"% c #964F00",
"& c #9D704C",
"* c #926475",
"= c #AD707B",
"- c #D7906E",
"; c #B77F83",
": c #928A8C",
"> c #A7A7A8",
", c #C39490",
"< c #EEBE93",
"1 c #D1B1A5",
"2 c #DCCABE",
"3 c #FFE1AF",
"4 c #C2C0C3",
"5 c #D4D4D7",
"6 c gray85",
"7 c #D9D9DD",
"8 c #F3F3F5",
"9 c white",
"0 c None",
/* pixels */
"00000000000000000000000000000000",
"@@@@@@@@@@@@@@@@@@@@@@@@@@@@@@@@",
",,,11111,,1,ooooooo,,,,,,,,,=@=,",
",,,,,,,,,,oo&&---&&oo,,,,,,,,@,,",
",,,,,,,,,o&--<<<<<--&o===,,@@@,,",
",,,,,,,,o&-<<<<<<<<<-&o1,,,,;@,,",
",,,,,,,,o-<<<33333<<<-o,,,,,,@,,",
",,,,,,,o&-<<3333333<<-&o,,,,,@,,",
",,,,,,,o-<<333333333<<-o,,,,=@=,",
"@@@@@@@o-<33333333333<-o@@@@@@@@",
"1,,,,,oo-<33333333333<-oo,,,,,11",
",,,,,o-o-<33333333333<-o-o,,,,,,",
",,,,,o-o-<ooo33333ooo<-o-o,,,,,,",
",,,,1,oo&<6 7333337 6<&oo,,,,,,,",
",,,,,,,o&<9 :33333: 9<&o,,,,,,,,",
",,,,,,,,o-<%%33333%%<-o,,,,,,,,,",
",,,,,,,,>o-<3333333<-o>,,,,,,,,,",
"@@@@@@@>54o&-<<<<<-&o45>@@@@@@@@",
",,1,11>5884ooooooooo4885>,,,=@=,",
",,,,,>5884554845484554885>,,,@,,",
",,,,,o&55>58545>54585>55&o,,,@,,",
",,,,,o<<&>58885588885>&<<o,,;@,,",
",,,,o&3-o.45885>88884.o-3&o@@@,,",
",,,,o33&oXOO#+...+#OOXo&33o,,@,,",
",,,,o3<o,X+#$$$$$$$#+X,o<3o,=@=,",
"@@@@@oo@@X+##+++++##+X@@oo@@@@@@",
",,,,,,,,,,+#$#XXX#$#+1122211,,,,",
",,,,,,,,,,X#$#X,X#$#X,,,,,,,,,,,",
",,===,,=,,.+#+.,.+#+.===========",
",,,1,,,11,.++O.,.O++.===========",
",,,,,,,,,,,...,,,...============",
",,,,,,,,,,,,,@,,,,,=======*@@@@@"
};
