/* XPM */
static char *result[] = {
/* columns rows colors chars-per-pixel */
"64 64 49 1 ",
"  c #301807",
". c #4E0000",
"X c #660100",
"o c #661600",
"O c #7E1600",
"+ c #54331A",
"@ c #685D0C",
"# c #50404A",
"$ c #5E4B57",
"% c #7F5159",
"& c #6E5967",
"* c #8F2308",
"= c #903600",
"- c #A5310A",
"; c #B43B0B",
": c #9C4D0D",
"> c #8A6431",
", c #C66314",
"< c #C67D19",
"1 c #D25B2B",
"2 c #845F44",
"3 c #875C5F",
"4 c #945F69",
"5 c #906C69",
"6 c #926475",
"7 c #AD707B",
"8 c #A77F7B",
"9 c #9C8E1F",
"0 c #968C3D",
"q c #E49E3F",
"w c #AE8A5A",
"e c #9A8279",
"r c #F68D4D",
"t c #CCA777",
"y c #FFD57F",
"u c #B77F83",
"i c #A3958C",
"p c #B3988D",
"a c #C39490",
"s c #D1B1A5",
"d c #DCCABE",
"f c #E7CFA3",
"g c #F9DDBB",
"h c #FFE8CD",
"j c #FAECD0",
"k c #FCF3DF",
"l c #FFFBF3",
"z c white",
"x c None",
/* pixels */
"&&&&&&&&&&&&&&&&&&&&&&&&&&&&&&&&&&&&&&&&&&&&&&&&&&&&&&&&&&&&&&&x",
"aaaasssssaasaaaaaaaaaaaaaaaaa7&7aaaasssssaasaaaaaaaaaaaaaaaaa7&x",
"aaaaaaaaaaaaaaaaaaaaaaaaaaaaaa&aaaaaaaaaaaaaaaaaaaaaaaaaaaaaaa&x",
"aaaaaaaaaa2222222222a77777aa&&&aaaaaaaaaaaaaaaaaaaa7a77777aa&&&x",
"aaaaaaa22wfzzzzzzzzfw22ssaaaau&aaaaaaaaaaaaaaaaaaaaasasssaaaau&x",
"aaaaa+>fzzzzzz....zzzzf2+aaaaa&aaaaaaaaaaaaaaaaaaaaaaaaaaaaaaa&x",
"aaaa+fzzzzh..O;;--O.zzzzf+aaaa&aaaaaaaaaaaaaaaaaaaaaaaaaaaaaaa&x",
"aaa+fzzz::O;;00*;;;-..fzzf+aa7&7aaaaaaaaaaaaaaaaaaaaaaaaaaaaa7&x",
"&&2fzzf:qO--;-0@*@0*-;.fzzf2&&&&&&&&&&&&&&&&&&&&&&&&&&&&&&&&&&&x",
"sswzzf:qO-;1;-;*@*;;;;-.tzzwaaasssaaaaaaaaaaa7&7aaasasssssaaaaax",
"a fzf:q.-;9;-*-;;@;;;-*.ftzf aaaaaaaaaaaaaaaaa&aaaaaaaaaaaaaaaax",
"awzzt:,;**-;;;;;;;;;@;;X:tzzwaaaaaaaaa77a7aa&&&aaaaaaaaaaaaaaaax",
" fzz:q.--;1;;@;;1r1;;-;O:fzzf aaaaaaasassaaaau&aaaaaaaaaaaaaaaax",
" zzf:y*;1-;-@;;1;-;;r;-.y:fzz aaaaaaaaaaaaaaaa&aaaaaaaaaaaaaaaax",
" zztoq,O-*-;1r-*-;;1-*Oyq:tzz 8aaaaaaaaaaaaaaa&aaaaaaaaaaaaaaaax",
" zzt<yyX*-@9;---;@;-**X,y<tzz 5aaaaaaaaaaaaaa7&7aaaaaaaaaaaaaaax",
" zzt:yqy,**-;*-*-****Xyyy:tzz #&&&&&&&&&&&&&&&&&&&&&&&&&&&&&&&&x",
" zztf<y,y.*****O***OX,qq,ofzz #7aaasassdddsassaaaaaaaaaaaaaaa7&x",
" zzfj:yqy,X;;;X,qXO,y,y,otgzz #aaaaaaaaaaaaaaaaaaaaaaaaaaaaaaa&x",
" jzzgf<=0qyXOOqyyqyqyqyq:gjzj #aaaaaaaaaaaaaaaaaaaaaaaaaaaaaaa&x",
"a zzfjf:qyqy,y,,qyq@qq,:jfzz 3#aaaaaaaaaaaaaaaaaaaaaaaaaaaaaau&x",
"a jzjgjf:qy@qyqyyqyyy:ojflzj #$aaaaaaaaaaaaaaaaaaaaaa77a7a&&&&&x",
"aa2zzjflf:<yyqyqqo<:<flfjzz255&aaaaaaaaaaaaaaaaaaaaaaaasassaaa&x",
"aa jzljflgf<::<::fgkllfjlzj 54&7aaaaaaaaaaaaaaaaaaaaaaaaaaaaa7&x",
"&&&2jlzjfgkllllllllkgfjzlj2##&&&&&&&&&&&&&&&&&&&&&&&&&&&&&&&&&&x",
"aaa8 jlllzggggggggggzzzzj iepaaaaaaaaaaaaaaaa7&7aaasasssdddssaax",
"aaaa8 2jzzzzzzzzzzzzzzj2 558aaaaaaaaaaaaaaaaaa&aaaaaaaaaaaaaaaax",
"aaa7745  2jzzzzzzzzj2  %%%47777777777777uaaaaa&aaaaaaaaaaaaaaaax",
"aaaasa85ee          3%%%%4777777777777777uaaaa&aaaaaaaaaaaaaaaax",
"aaaaaaaa855555#55555%%%4777777777777777777aaaa&aaaaaaaaaaaaaaaax",
"aaaaaaaaaaa855#5555547777776&&&&&&67777777aaaa&aaaaaaaaaaaaaaaax",
"aaaaaaaaaaaaa7&7aaau7777776&&&&&&&&6777777uaa7&7aaaaaaaaaaaaaaax",
"&&&&&&&&&&&&&&&&&&&&&&&&&&&&&&&&&&&&&&&&&&&&&&&&&&&&&&&&&&&&&&&x",
"aaaasssssaasaaaaaaau77776&&&&&&&&&&&&67777uaaaaaaaaaaaaaaaaaa7&x",
"aaaaaaaaaaaaaaaaaaaa77777&&&&&&&&&&&&77777aaaaaaaaaaaaaaaaaaaa&x",
"aaaaaaaaaaaaaaaaaaaa777776&&&&&&&&&&677777aaaaaaaaa7a77777aa&&&x",
"aaaaaaaaaaaaaaaaaaaa7777777776&67777777777aaaaaaaaaasasssaaaau&x",
"aaaaaaaaaaaaaaaaaaaa7777777777&77777777777aaaaaaaaaaaaaaaaaaaa&x",
"aaaaaaaaaaaaaaaaaaaa7777777777&77777777777aaaaaaaaaaaaaaaaaaaa&x",
"aaaaaaaaaaaaaaaaaaau7777777776&67777777777uaaaaaaaaaaaaaaaaaa7&x",
"&&&&&&&&&&&&&&&&&&&&&&&&&&&&&&&&&&&&&&&&&&&&&&&&&&&&&&&&&&&&&&&x",
"ssaaaaaaaaaaa7&7aaaau77777777777777777777uaaa7&7aaasasssssaaaaax",
"aaaaaaaaaaaaaa&aaaaaau777777777777777777uaaaaa&aaaaaaaaaaaaaaaax",
"aaaaaa77a7aa&&&aaaaaaaaaaaaaaaaaaaaaaaaaaaaaaa&aaaaaaaaaaaaaaaax",
"aaaaasassaaaau&aaaaaaaaaaaaaaaaaaaaaaa77a7a&&&&aaaaaaaaaaaaaaaax",
"aaaaaaaaaaaaaa&aaaaaaaaaaaaaaaaaaaaaasassaaaau&aaaaaaaaaaaaaaaax",
"aaaaaaaaaaaaaa&aaaaaaaaaaaaaaaaaaaaaaaaaaaaaaa&aaaaaaaaaaaaaaaax",
"aaaaaaaaaaaaa7&7aaaaaaaaaaaaaaaaaaaaaaaaaaaaa7&7aaaaaaaaaaaaaaax",
"&&&&&&&&&&&&&&&&&&&&&&&&&&&&&&&&&&&&&&&&&&&&&&&&&&&&&&&&&&&&&&&x",
"aaasassdddsassaaaaaaaaaaaaaaa7&7aaasassdddsassaaaaaaaaaaaaaaa7&x",
"aaaaaaaaaaaaaaaaaaaaaaaaaaaaaa&aaaaaaaaaaaaaaaaaaaaaaaaaaaaaaa&x",
"aaaaaaaaaaaaaaaaaaaaaaaaaaaaaa&aaaaaaaaaaaaaaaaaaaaaaaaaaaaaaa&x",
"aaaaaaaaaaaaaaaaaaaaaaaaaaaaau&aaaaaaaaaaaaaaaaaaaaaaaaaaaaaau&x",
"aaaaaaaaaaaaaaaaaaaaa77a7a&&&&&aaaaaaaaaaaaaaaaaaaaaa77a7a&&&&&x",
"aaaaaaaaaaaaaaaaaaaaaaasassaaa&aaaaaaaaaaaaaaaaaaaaaaaasassaaa&x",
"aaaaaaaaaaaaaaaaaaaaaaaaaaaaa7&7aaaaaaaaaaaaaaaaaaaaaaaaaaaaa7&x",
"&&&&&&&&&&&&&&&&&&&&&&&&&&&&&&&&&&&&&&&&&&&&&&&&&&&&&&&&&&&&&&&x",
"aaaaaaaaaaaaa7&7aaasasssdddssaaaaaaaaaaaaaaaa7&7aaasasssdddssaax",
"aaaaaaaaaaaaaa&aaaaaaaaaaaaaaaaaaaaaaaaaaaaaaa&aaaaaaaaaaaaaaaax",
"aaa777aa7aa&&&&aaaaaaaaaaaaaaaaaaaa777aa7aa&&&&aaaaaaaaaaaaaaaax",
"aaaasaaassasau&aaaaaaaaaaaaaaaaaaaaasaaassasau&aaaaaaaaaaaaaaaax",
"aaaaaaaaaaaaaa&aaaaaaaaaaaaaaaaaaaaaaaaaaaaaaa&aaaaaaaaaaaaaaaax",
"aaaaaaaaaaaaaa&aaaaaaaaaaaaaaaaaaaaaaaaaaaaaaa&aaaaaaaaaaaaaaaax",
"aaaaaaaaaaaaa7&7aaaaaaaaaaaaaaaaaaaaaaaaaaaaa7&7aaaaaaaaaaaaaaax"
};
