/* XPM */
static char *result[] = {
/* columns rows colors chars-per-pixel */
"32 32 40 1 ",
"  c #343F2F",
". c #5C2E06",
"X c #4D3B39",
"o c #136F39",
"O c #534721",
"+ c #3B6D5D",
"@ c #705654",
"# c #6E5967",
"$ c #747676",
"% c #853E10",
"& c #FF2627",
"* c #D14F35",
"= c #9D704C",
"- c #926475",
"; c #8F7772",
": c #AD707B",
"> c #FF7774",
", c #12A855",
"< c #C79D00",
"1 c #E3B700",
"2 c #FFD600",
"3 c #FFFC00",
"4 c #D7906E",
"5 c #B77F83",
"6 c #FF5DB3",
"7 c #A0A69E",
"8 c #B7A099",
"9 c #B4B8B7",
"0 c #C39490",
"q c #EEBE93",
"w c #D1B1A5",
"e c #DCCABE",
"r c #FFE1AF",
"t c #FFACD4",
"y c #D6DAD9",
"u c #FFD0DF",
"i c #EFEFEF",
"p c #F3EFEF",
"a c white",
"s c None",
/* pixels */
"ssssssssssssssssssssssssssssssss",
"################################",
"000wwwww00wXXXXOXXXX00000000:#:0",
"000000000XX@O;O3O;O@XX0000000#00",
"00000000X@;;3O222O3;;@X::00###00",
"0000000X@;;8211&1128;;@X00005#00",
"000000X@;;8<1;;;;;1<8;;@X0000#00",
"000000X@;;<888888888<;;@X0000#00",
"00000X@;;;;;8888888;;;;;@X00:#:0",
"#####X@;;;@;;;;;;;;;@;;;@X######",
"w0000X@;;;@;;;;;;;;;@;;;@X0000ww",
"00000X@;;;@;@;@;@;@;@;;;@X000000",
"00000X@;;;q+++rrr+++q;;;@X000000",
"0000wX@4;;+i prrrp i+;;4@X000000",
"00000X@4;8+a 7rrr7 a+8;4@X000000",
"00000X@O;8qaoorrrooaq8;O@X000000",
"00000X@@;;qr,,rrr,,rq;;@@X000000",
"#####X@@;;4qrrrrrrrq4;;@@X######",
"00w0wX@@;;O=4qqqqq4=O;;@@X00:#:0",
"00000X@.;;%OOOOOOOOO%;;.@X000#00",
"00000X@.@;%*6turut6*%;@.@X000#00",
"000000$ya@.*>>tut>>*.@ay$0005#00",
"000000Orr9.%>>>>>>>%.9rrO#####00",
"000000OrqO66**>>>**66OqrOw000#00",
"0000000OO%6%ttuuutt%6%OO0000:#:0",
"#######.%%**>uyyyu>**%%.########",
"0000000.%**>>yaaay>>**%.eeww0000",
"0000000.%**>99yyy99>**%.00000000",
"00:::00:..*9yaaaaay9*..:::::::::",
"000w000ww0.$$99999$$.:::::::::::",
"0000000000000#00000:::::::::::::",
"0000000000000#00000:::::::-#####"
};
